<?xml version="1.0" encoding="UTF-8" standalone="no"?>
<!-- Created with Inkscape (http://www.inkscape.org/) -->

<svg
   width="97mm"
   height="97mm"
   viewBox="0 0 97 97"
   version="1.1"
   id="svg5"
   inkscape:version="1.1.2 (b8e25be833, 2022-02-05)"
   sodipodi:docname="team_eracing_logo_2023_white.svg"
   inkscape:export-filename="G:\Mon Drive\NET\1-Team-eRacing\Logo Team-eRacing 2023\Team-eRacing Logo 2023 2000pix.png"
   inkscape:export-xdpi="523.71136"
   inkscape:export-ydpi="523.71136"
   xmlns:inkscape="http://www.inkscape.org/namespaces/inkscape"
   xmlns:sodipodi="http://sodipodi.sourceforge.net/DTD/sodipodi-0.dtd"
   xmlns="http://www.w3.org/2000/svg"
   xmlns:svg="http://www.w3.org/2000/svg">
  <sodipodi:namedview
     id="namedview7"
     pagecolor="#ffffff"
     bordercolor="#666666"
     borderopacity="1.0"
     inkscape:pageshadow="2"
     inkscape:pageopacity="0.0"
     inkscape:pagecheckerboard="0"
     inkscape:document-units="mm"
     showgrid="false"
     inkscape:zoom="1"
     inkscape:cx="219.5"
     inkscape:cy="199"
     inkscape:window-width="1920"
     inkscape:window-height="1009"
     inkscape:window-x="-8"
     inkscape:window-y="-8"
     inkscape:window-maximized="1"
     inkscape:current-layer="layer2"
     borderlayer="false"
     fit-margin-top="1"
     fit-margin-left="1"
     fit-margin-right="1"
     fit-margin-bottom="1"
     width="96mm" />
  <defs
     id="defs2" />
  <g
     inkscape:groupmode="layer"
     id="layer2"
     inkscape:label="TER + Fond Blanc"
     style="display:inline">
    <path
       style="fill:#ffffff;fill-opacity:1;stroke-width:0.264583"
       d="m 93.955976,40.784026 c -0.10887,-0.0933 -6.60896,-2.25387 -14.44462,-4.80139 -7.83566,-2.54751 -17.721915,-5.76965 -21.969475,-7.16032 -33.794694,-11.06455 -43.419087,-14.18915 -43.496357,-14.12127 -0.04895,0.043 0.9666,1.76728 2.25677,3.83174 l 2.31475,3.750449 17.27299,5.587921 c 46.813417,15.144434 51.837544,16.737959 51.959292,16.74852 2.41009,-1.54427 3.61414,-2.25841 6.10665,-3.83565 z"
       id="path6865-4-0"
       sodipodi:nodetypes="csssscscc" />
    <path
       id="path6865-4-7-9"
       style="fill:#ffffff;stroke-width:0.264583"
       d="m 20.968614,26.109404 c -0.18378,0.191011 5.097476,8.327451 5.547982,8.547283 0.244091,0.11906 4.008737,1.373505 8.365897,2.787425 l 7.922514,2.570903 0.05788,3.007569 C 33.406512,39.943067 28.989981,38.526316 28.945391,38.56549 c -0.04895,0.043 0.966539,1.767359 2.256708,3.83181 l 2.345595,3.753257 9.433531,3.056144 0.05685,2.976046 c -4.389202,-1.41924 -6.653045,-2.13538 -6.684346,-2.107882 -0.04895,0.043 0.966539,1.767348 2.256708,3.83181 l 2.345595,3.753257 2.200899,0.713134 0.260448,13.562997 6.697782,9.187037 C 50.099623,77.438097 49.977015,69.02414 49.789076,59.225212 L 49.327606,35.170349 48.062567,34.754871 C 36.855894,31.07448 21.045531,26.029474 20.968614,26.109404 Z" />
    <path
       id="path6865-4-7-0-2"
       style="fill:#ffffff;stroke-width:0.264583"
       d="m 53.058127,36.501018 0.482659,25.161255 c 0.265419,13.838899 0.66621,25.132533 0.660941,25.021727 1.02118,1.392599 1.448227,2.002225 2.009697,2.744534 0.0858,0.0711 0.919983,1.35353 2.000911,2.740404 1.302424,1.671063 1.936941,2.383474 2.385778,2.918685 -0.02373,-9.389725 -0.01067,-13.753833 -0.132688,-24.331332 -0.06594,-2.478717 -0.123036,-4.70857 -0.175183,-6.805787 l 7.985043,2.616377 4.106727,-1.651061 c 2.25869,-0.908201 4.094671,-1.703834 4.08037,-1.767334 -0.01175,-0.05251 -3.57808,-1.236718 -11.251509,-3.741891 1.402429,-0.939679 4.353089,-2.953986 8.078059,-5.376416 0.93476,-0.577151 2.381441,-1.489151 4.218864,-2.658234 0.0021,5.29e-4 0.004,0.0013 0.0062,0.0021 0.100116,-0.06686 0.183605,-0.120055 0.280088,-0.183968 0.816216,-0.519708 1.67994,-1.070983 2.625161,-1.675868 1.388565,-0.857784 2.562775,-1.561846 4.263821,-2.757972 -3.232208,-1.099428 -5.672058,-2.024591 -9.259898,-3.168279 -3.58785,-1.143701 -9.81902,-3.15087 -13.846701,-4.460711 -4.02767,-1.309849 -7.591666,-2.436402 -7.920445,-2.503723 z m 7.013009,9.189103 c 0.149831,-0.003 2.347868,0.678765 4.884457,1.514637 1.592469,0.447926 3.142805,0.94044 4.654494,1.447972 -2.147292,1.482145 -4.347934,3.022727 -6.99027,4.85345 -0.782754,0.529021 -1.645155,1.108895 -2.530078,1.703774 -0.129577,-6.440985 -0.134464,-9.517613 -0.0186,-9.519833 z"
       sodipodi:nodetypes="ccccscccccccccccccssccsccccss" />
  </g>
  <g
     inkscape:groupmode="layer"
     id="layer4"
     inkscape:label="Cercle en Fond"
     style="display:none">
    <circle
       style="display:inline;fill:#00ff00;fill-opacity:1;stroke-width:0.246121;stroke-opacity:0;stop-color:#000000"
       id="path8239-3"
       cx="47.529999"
       cy="47.381332"
       r="45" />
  </g>
  <g
     inkscape:label="Cercle + Fond Noir"
     inkscape:groupmode="layer"
     id="layer1"
     transform="translate(-46.849716,-3.2970814)"
     style="display:inline">
    <path
       style="opacity:1;fill:#ffffff;fill-opacity:1;stroke-width:0.265;stroke-miterlimit:4;stroke-dasharray:none"
       d="m 98.477342,96.006444 c -1.60163,-2.245996 -3.155559,-4.321763 -4.079654,-5.702835 -1.428456,-0.02508 -1.979469,-0.07666 -4.21682,-0.326132 C 83.468892,89.040718 78.100928,86.669326 74.09077,83.89348 71.1096,82.380483 65.478877,76.78555 63.451759,73.83441 55.119598,61.70422 53.958274,46.43319 60.3997,33.70042 c 0.754794,-1.49208 0.975616,-2.044758 1.515996,-3.073916 -1.116862,-1.872986 -1.961353,-3.348148 -3.223893,-5.317964 -0.227462,0.309457 -1.969629,2.926637 -2.533205,4.068683 -0.993037,1.780563 -1.662207,3.205262 -2.146555,4.383367 -3.767932,9.164942 -4.525682,18.95442 -2.187143,28.25607 3.265224,12.98762 12.104423,23.890912 24.007652,29.61375 2.687843,1.292262 5.53281,2.316749 8.054601,2.99661 2.72023,0.679862 4.827682,1.06036 6.707062,1.267409 2.104066,0.202312 5.525827,0.33957 7.883127,0.112015 z"
       id="path6865-8"
       sodipodi:nodetypes="ccccsscccsssccc" />
    <path
       style="fill:#ffffff;fill-opacity:1;stroke-width:0.264583"
       d="m 124.64081,85.352483 c 2.86764,-2.509769 5.19766,-5.182525 6.58007,-6.982906 2.80732,-3.735029 4.56274,-7.293026 5.1804,-8.74668 1.18712,-2.793844 2.00096,-5.14939 2.38184,-6.498524 0.79116,-3.256878 1.38905,-6.376984 1.50853,-9.722048 l 0.0847,-2.371243 c -2.09477,1.294531 -3.68403,2.356012 -5.75574,3.619402 -0.0809,1.878652 -0.83633,5.61484 -1.37991,7.437376 -0.58191,1.817692 -0.78993,2.511572 -1.27537,3.60981 -0.62375,1.271639 -1.16295,2.808789 -1.93854,4.103469 -1.00842,1.683321 -1.94348,3.463948 -3.24018,5.018012 -1.22571,1.714944 -2.25792,2.695831 -3.19168,3.691119 -1.85183,1.891526 -7.64598,6.401713 -10.52548,7.596246 0.008,2.558544 0.0183,3.327454 -0.0195,6.453108 1.95317,-0.872163 3.73483,-1.879707 5.46676,-2.792018 2.05934,-1.239716 4.10245,-2.824178 6.12415,-4.415123 z"
       id="path6865-8-6-5"
       sodipodi:nodetypes="ccscsccccscccccc" />
    <path
       style="fill:#ffffff;fill-opacity:1;stroke:#e7ed30;stroke-width:9.465;stroke-miterlimit:4;stroke-dasharray:none;stroke-opacity:0"
       d="m 138.09088,37.215168 c -0.88978,-2.923467 -2.47377,-6.2869 -3.76636,-8.447948 -1.25751,-2.266286 -1.86481,-3.002812 -3.21097,-4.848166 -1.41632,-1.903819 -3.30667,-3.841034 -4.52262,-5.056481 -1.84975,-1.86052 -3.67215,-3.160419 -4.94704,-4.126102 C 119.87323,13.46627 117.65421,12.157928 116.02308,11.3133 114.17753,10.385773 111.9085,9.3317116 109.46062,8.5178009 104.75504,7.0105147 101.26808,6.5621105 99.123894,6.4329298 96.880495,6.2458716 96.121065,6.2637034 94.686196,6.2786393 c -1.00367,0.024747 -1.915677,0.010986 -3.178269,0.1291793 -1.262592,0.1181926 -2.999992,0.3751987 -4.330874,0.6123941 -2.313052,0.4122418 -4.886118,1.1522735 -6.325072,1.6424362 -1.409495,0.5046887 -3.168435,1.1617884 -4.877967,1.9945231 -1.709532,0.832734 -4.190546,2.20561 -5.378789,3.055321 l -1.420106,1.015516 c 2.482269,0.829515 4.170002,1.262597 6.764409,2.148679 1.806272,-0.940884 3.928657,-1.986236 5.666209,-2.635179 1.375235,-0.513625 2.924393,-0.937299 3.963036,-1.238557 3.019819,-0.86862 4.953788,-1.0241 8.242841,-1.187393 4.049729,0.101291 8.790216,0.293434 14.375936,1.999264 2.14855,0.84175 4.15395,1.675767 6.19877,2.75781 2.42691,1.284227 4.45349,2.778735 6.62507,4.535869 2.10543,1.988644 4.01493,3.964068 5.58569,5.881158 2.12517,2.593748 3.43186,5.66056 4.708,7.991969 2.38257,0.756472 4.48716,1.51752 6.7858,2.233539 z"
       id="path6865-8-6-4"
       sodipodi:nodetypes="cccccccccccccsccscccscscc" />
  </g>
  <g
     inkscape:groupmode="layer"
     id="layer3"
     inkscape:label="Etoile"
     style="display:inline">
    <path
       style="display:inline;fill:#ffffff;fill-opacity:1;stroke-width:0.0441251"
       d="m 54.956178,22.624474 c -0.15299,-0.3701 -0.38541,-0.93104 -0.51647,-1.24653 -0.260289,-0.62656 -0.929229,-2.2678 -1.098279,-2.69464 l -0.10606,-0.26774 0.51966,-0.50606 c 0.28581,-0.27833 0.685819,-0.66569 0.888889,-0.86078 l 0.36923,-0.35473 -1.223369,-0.21728 -1.22337,-0.21728 -0.0701,-0.1765 c -0.0385,-0.0971 -0.27966,-0.59842 -0.5358,-1.11409 l -0.46569,-0.93759 -0.19693,0.38602 c -0.26374,0.51699 -0.61871,1.16474 -0.68308,1.24648 -0.0286,0.0364 -0.0892,0.15554 -0.13447,0.26474 -0.0453,0.10922 -0.10725,0.22631 -0.13769,0.26022 -0.0372,0.0415 -0.433378,0.10937 -1.210172,0.20745 -0.635163,0.0802 -1.172232,0.15174 -1.193475,0.15898 -0.04586,0.0157 0.278463,0.36817 1.091109,1.18608 l 0.59544,0.59929 -0.22365,1.13338 c -0.123004,0.62337 -0.223643,1.17283 -0.223643,1.22106 0,0.0753 0.143205,0.016 1.01487,-0.42013 0.558191,-0.2793 1.014881,-0.49899 1.014881,-0.48821 0,0.0108 -0.71979,0.63724 -1.599539,1.39211 -0.879742,0.75489 -1.708739,1.46717 -1.842219,1.58286 -0.360366,0.31234 -0.372563,0.31642 -0.335209,0.11244 0.01742,-0.0948 0.0581,-0.3411 0.09058,-0.54739 0.06539,-0.41549 0.222134,-1.2806 0.287809,-1.58851 0.132394,-0.62079 0.356926,-1.87 0.345393,-1.92166 -0.0075,-0.0332 -0.192207,-0.24506 -0.410631,-0.47062 -1.372035,-1.41697 -2.152846,-2.20525 -2.394495,-2.41735 -0.197129,-0.17301 -0.265422,-0.25951 -0.237931,-0.30132 0.0253,-0.0385 0.332745,-0.0954 0.894243,-0.16568 0.470628,-0.0589 1.143596,-0.14605 1.495499,-0.19372 0.351888,-0.0477 0.936087,-0.11717 1.298203,-0.15442 0.362117,-0.0373 0.662209,-0.0725 0.666882,-0.0786 0.01684,-0.0215 0.854195,-1.6153 1.211185,-2.305337 0.66107,-1.27784 0.84342,-1.61057 0.88266,-1.61057 0.0214,0 0.0523,0.0447 0.069,0.0993 0.0379,0.12416 0.18425,0.46941 0.24501,0.57796 0.0832,0.1485 0.77712,1.545567 0.92392,1.859947 0.0793,0.16988 0.25923,0.55571 0.39978,0.8574 0.14056,0.30168 0.28142,0.56279 0.31302,0.58026 0.0317,0.0175 0.57374,0.11502 1.204719,0.2168 0.96766,0.15606 2.93369,0.50758 3.02921,0.54158 0.0157,0.005 -0.39129,0.4114 -0.90456,0.90174 -0.5133,0.49033 -1.2273,1.17537 -1.58666,1.52231 l -0.6534,0.63079 0.0683,0.37507 c 0.0627,0.34448 0.15159,0.9204 0.44922,2.91226 0.15763,1.05491 0.1637,1.10312 0.13885,1.10312 -0.0124,0 -0.14776,-0.30282 -0.30075,-0.67291 z"
       id="path88846-9" />
  </g>
</svg>
